<svg width="97" height="97" viewBox="0 0 97 97" fill="none" xmlns="http://www.w3.org/2000/svg">
<path d="M90.9375 42.4375H80.0667L63.6562 26.0271C63.0953 25.4617 62.4276 25.0134 61.6919 24.7083C60.9562 24.4032 60.1673 24.2475 59.3708 24.25H16.778C15.7822 24.2518 14.8022 24.4989 13.9246 24.9695C13.047 25.44 12.2988 26.1195 11.7461 26.9478L0.507734 43.7864C0.177525 44.2854 0.000988406 44.8704 0 45.4688L0 63.6563C0 65.2641 0.638726 66.8061 1.77567 67.9431C2.9126 69.08 4.45463 69.7188 6.0625 69.7188H12.5039C13.1717 72.3269 14.6885 74.6386 16.8153 76.2894C18.942 77.9402 21.5577 78.8363 24.25 78.8363C26.9423 78.8363 29.558 77.9402 31.6847 76.2894C33.8115 74.6386 35.3283 72.3269 35.9961 69.7188H61.0039C61.6717 72.3269 63.1885 74.6386 65.3153 76.2894C67.442 77.9402 70.0577 78.8363 72.75 78.8363C75.4423 78.8363 78.058 77.9402 80.1847 76.2894C82.3115 74.6386 83.8283 72.3269 84.4961 69.7188H90.9375C92.5454 69.7188 94.0874 69.08 95.2243 67.9431C96.3613 66.8061 97 65.2641 97 63.6563V48.5C97 46.8921 96.3613 45.3501 95.2243 44.2132C94.0874 43.0762 92.5454 42.4375 90.9375 42.4375ZM16.778 30.3125H59.3708L71.4958 42.4375H8.71484L16.778 30.3125ZM24.25 72.75C23.051 72.75 21.8788 72.3944 20.8819 71.7283C19.8849 71.0621 19.1078 70.1153 18.649 69.0075C18.1901 67.8997 18.0701 66.6808 18.304 65.5048C18.5379 64.3288 19.1153 63.2485 19.9632 62.4007C20.811 61.5528 21.8913 60.9754 23.0673 60.7415C24.2433 60.5076 25.4622 60.6276 26.57 61.0865C27.6778 61.5453 28.6246 62.3224 29.2908 63.3194C29.9569 64.3163 30.3125 65.4885 30.3125 66.6875C30.3125 68.2954 29.6738 69.8374 28.5368 70.9743C27.3999 72.1113 25.8579 72.75 24.25 72.75ZM72.75 72.75C71.5509 72.75 70.3788 72.3944 69.3819 71.7283C68.3849 71.0621 67.6078 70.1153 67.149 69.0075C66.6901 67.8997 66.5701 66.6808 66.804 65.5048C67.0379 64.3288 67.6153 63.2485 68.4632 62.4007C69.311 61.5528 70.3913 60.9754 71.5673 60.7415C72.7433 60.5076 73.9622 60.6276 75.07 61.0865C76.1778 61.5453 77.1246 62.3224 77.7908 63.3194C78.4569 64.3163 78.8125 65.4885 78.8125 66.6875C78.8125 68.2954 78.1738 69.8374 77.0368 70.9743C75.8999 72.1113 74.3579 72.75 72.75 72.75ZM90.9375 63.6563H84.4961C83.8283 61.0481 82.3115 58.7364 80.1847 57.0856C78.058 55.4348 75.4423 54.5387 72.75 54.5387C70.0577 54.5387 67.442 55.4348 65.3153 57.0856C63.1885 58.7364 61.6717 61.0481 61.0039 63.6563H35.9961C35.3283 61.0481 33.8115 58.7364 31.6847 57.0856C29.558 55.4348 26.9423 54.5387 24.25 54.5387C21.5577 54.5387 18.942 55.4348 16.8153 57.0856C14.6885 58.7364 13.1717 61.0481 12.5039 63.6563H6.0625V48.5H90.9375V63.6563Z" fill="black"/>
</svg>
