<svg width="97" height="97" viewBox="0 0 97 97" fill="none" xmlns="http://www.w3.org/2000/svg">
<path d="M72.75 43.9531C72.75 44.8524 72.4833 45.7315 71.9837 46.4792C71.4841 47.227 70.774 47.8097 69.9431 48.1539C69.1123 48.498 68.1981 48.5881 67.3161 48.4126C66.4341 48.2372 65.6239 47.8041 64.988 47.1683C64.3521 46.5324 63.9191 45.7222 63.7436 44.8402C63.5682 43.9582 63.6582 43.0439 64.0024 42.2131C64.3465 41.3823 64.9293 40.6722 65.677 40.1725C66.4248 39.6729 67.3038 39.4062 68.2031 39.4062C69.409 39.4062 70.5655 39.8853 71.4183 40.738C72.271 41.5907 72.75 42.7472 72.75 43.9531ZM57.5938 24.25H42.4375C41.6336 24.25 40.8626 24.5694 40.2941 25.1378C39.7256 25.7063 39.4062 26.4773 39.4062 27.2812C39.4062 28.0852 39.7256 28.8562 40.2941 29.4247C40.8626 29.9931 41.6336 30.3125 42.4375 30.3125H57.5938C58.3977 30.3125 59.1687 29.9931 59.7372 29.4247C60.3056 28.8562 60.625 28.0852 60.625 27.2812C60.625 26.4773 60.3056 25.7063 59.7372 25.1378C59.1687 24.5694 58.3977 24.25 57.5938 24.25ZM93.9688 42.4375V54.5625C93.9688 56.9743 93.0107 59.2873 91.3053 60.9928C89.5998 62.6982 87.2868 63.6562 84.875 63.6562H83.9808L77.8387 80.851C77.4182 82.0288 76.6437 83.0477 75.6215 83.7681C74.5992 84.4885 73.3792 84.8751 72.1286 84.875H67.3089C66.0583 84.8751 64.8383 84.4885 63.816 83.7681C62.7938 83.0477 62.0193 82.0288 61.5988 80.851L60.8713 78.8125H39.16L38.4325 80.851C38.0119 82.0288 37.2375 83.0477 36.2152 83.7681C35.193 84.4885 33.9729 84.8751 32.7223 84.875H27.9027C26.6521 84.8751 25.432 84.4885 24.4098 83.7681C23.3875 83.0477 22.6131 82.0288 22.1925 80.851L17.4297 67.5287C12.8987 62.4005 10.0615 55.9984 9.30594 49.1972C8.32769 49.711 7.50847 50.4824 6.93682 51.428C6.36518 52.3736 6.06284 53.4575 6.0625 54.5625C6.0625 55.3664 5.74314 56.1375 5.17467 56.7059C4.6062 57.2744 3.83519 57.5938 3.03125 57.5938C2.22731 57.5938 1.4563 57.2744 0.887833 56.7059C0.319363 56.1375 0 55.3664 0 54.5625C0.00463167 51.8592 0.912491 49.2351 2.57934 47.1069C4.2462 44.9787 6.57643 43.4686 9.19984 42.8164C9.87702 34.4628 13.671 26.6693 19.8285 20.9835C25.9859 15.2978 34.0565 12.1356 42.4375 12.125H81.8438C82.6477 12.125 83.4187 12.4444 83.9872 13.0128C84.5556 13.5813 84.875 14.3523 84.875 15.1562C84.875 15.9602 84.5556 16.7312 83.9872 17.2997C83.4187 17.8681 82.6477 18.1875 81.8438 18.1875H73.7389C78.7695 21.717 82.7259 26.569 85.1705 32.207C85.3335 32.5859 85.4926 32.9648 85.6442 33.3438C87.9203 33.5369 90.0403 34.5797 91.5827 36.2646C93.1251 37.9495 93.9769 40.1532 93.9688 42.4375ZM87.9062 42.4375C87.9062 41.6336 87.5869 40.8626 87.0184 40.2941C86.45 39.7256 85.6789 39.4062 84.875 39.4062H83.4882C82.8426 39.4069 82.2137 39.2015 81.693 38.8198C81.1723 38.4382 80.787 37.9002 80.5934 37.2844C78.8567 31.7422 75.3943 26.9002 70.7114 23.4647C66.0286 20.0293 60.3704 18.1802 54.5625 18.1875H42.4375C37.1431 18.1872 31.963 19.7275 27.5289 22.6205C23.0948 25.5135 19.5983 29.6342 17.4658 34.4801C15.3332 39.326 14.6568 44.6877 15.519 49.9114C16.3812 55.1352 18.7447 59.9951 22.3214 63.8988C22.5949 64.1962 22.8061 64.5453 22.9428 64.9256L27.9027 78.8125H32.7223L34.1698 74.762C34.3799 74.1734 34.7669 73.6642 35.2776 73.304C35.7884 72.9438 36.398 72.7503 37.0229 72.75H63.0083C63.6333 72.7503 64.2429 72.9438 64.7536 73.304C65.2644 73.6642 65.6513 74.1734 65.8615 74.762L67.3089 78.8125H72.1286L78.9906 59.6057C79.2007 59.0172 79.5877 58.5079 80.0984 58.1477C80.6092 57.7876 81.2188 57.5941 81.8438 57.5938H84.875C85.6789 57.5938 86.45 57.2744 87.0184 56.7059C87.5869 56.1375 87.9062 55.3664 87.9062 54.5625V42.4375Z" fill="black"/>
</svg>
