<svg width="97" height="97" viewBox="0 0 97 97" fill="none" xmlns="http://www.w3.org/2000/svg">
<path d="M84.4961 21.5977C80.3779 17.4898 74.8007 15.1797 68.9839 15.1726C63.1672 15.1655 57.5843 17.4619 53.4561 21.5598L48.5 26.1635L43.5401 21.5446C39.4129 17.429 33.8198 15.1214 27.9912 15.1296C22.1626 15.1377 16.576 17.461 12.4604 21.5882C8.3447 25.7154 6.03714 31.3085 6.04531 37.1371C6.05348 42.9657 8.37672 48.5523 12.5039 52.668L46.3592 87.0196C46.6413 87.306 46.9775 87.5335 47.3482 87.6887C47.719 87.844 48.117 87.9239 48.519 87.9239C48.9209 87.9239 49.3189 87.844 49.6897 87.6887C50.0605 87.5335 50.3967 87.306 50.6787 87.0196L84.4961 52.668C88.6147 48.5469 90.9283 42.9591 90.9283 37.1328C90.9283 31.3065 88.6147 25.7187 84.4961 21.5977ZM80.1955 48.4091L48.5 80.5555L16.7856 48.3788C13.801 45.3941 12.1242 41.3461 12.1242 37.1252C12.1242 32.9044 13.801 28.8563 16.7856 25.8717C19.7702 22.8871 23.8182 21.2104 28.0391 21.2104C32.26 21.2104 36.308 22.8871 39.2926 25.8717L39.3684 25.9475L46.435 32.5215C46.9959 33.0435 47.7338 33.3338 48.5 33.3338C49.2663 33.3338 50.0041 33.0435 50.5651 32.5215L57.6317 25.9475L57.7074 25.8717C60.6941 22.8891 64.7432 21.2151 68.9641 21.2179C73.185 21.2208 77.2319 22.9003 80.2145 25.8869C83.1971 28.8735 84.8711 32.9226 84.8683 37.1435C84.8654 41.3644 83.1859 45.4113 80.1993 48.3939L80.1955 48.4091Z" fill="black"/>
</svg>
