<svg width="97" height="97" viewBox="0 0 97 97" fill="none" xmlns="http://www.w3.org/2000/svg">
<path d="M81.8438 27.2813H68.5517C68.6995 27.1562 68.8511 27.035 68.995 26.9024C70.1458 25.88 71.0733 24.6312 71.7194 23.234C72.3655 21.8368 72.7163 20.3214 72.75 18.7824C72.7998 17.0988 72.5049 15.4229 71.8835 13.8574C71.2622 12.2918 70.3274 10.8699 69.1366 9.67869C67.9457 8.48752 66.524 7.55231 64.9587 6.93046C63.3934 6.30862 61.7175 6.01327 60.0339 6.06254C58.4943 6.0957 56.9781 6.44632 55.5803 7.09243C54.1824 7.73855 52.933 8.66627 51.9102 9.8175C50.4949 11.4578 49.3443 13.3089 48.5 15.3041C47.6557 13.3089 46.5051 11.4578 45.0898 9.8175C44.067 8.66627 42.8176 7.73855 41.4197 7.09243C40.0219 6.44632 38.5057 6.0957 36.9661 6.06254C35.2825 6.01327 33.6066 6.30862 32.0413 6.93046C30.476 7.55231 29.0542 8.48752 27.8634 9.67869C26.6726 10.8699 25.7378 12.2918 25.1165 13.8574C24.4951 15.4229 24.2002 17.0988 24.25 18.7824C24.2837 20.3214 24.6345 21.8368 25.2806 23.234C25.9267 24.6312 26.8542 25.88 28.005 26.9024C28.1489 27.0274 28.3005 27.1487 28.4483 27.2813H15.1562C13.5484 27.2813 12.0064 27.92 10.8694 29.057C9.73248 30.1939 9.09375 31.7359 9.09375 33.3438V45.4688C9.09375 47.0767 9.73248 48.6187 10.8694 49.7556C12.0064 50.8926 13.5484 51.5313 15.1562 51.5313V75.7813C15.1562 77.3892 15.795 78.9312 16.9319 80.0681C18.0689 81.2051 19.6109 81.8438 21.2188 81.8438H75.7812C77.3891 81.8438 78.9311 81.2051 80.0681 80.0681C81.205 78.9312 81.8438 77.3892 81.8438 75.7813V51.5313C83.4516 51.5313 84.9936 50.8926 86.1306 49.7556C87.2675 48.6187 87.9062 47.0767 87.9062 45.4688V33.3438C87.9062 31.7359 87.2675 30.1939 86.1306 29.057C84.9936 27.92 83.4516 27.2813 81.8438 27.2813ZM56.457 13.8339C56.937 13.3039 57.5213 12.8788 58.1734 12.5854C58.8254 12.292 59.5311 12.1365 60.2461 12.1288H60.4318C61.2698 12.1341 62.0983 12.3065 62.8688 12.6361C63.6394 12.9656 64.3363 13.4457 64.919 14.048C65.5016 14.6504 65.9581 15.363 66.2618 16.1441C66.5655 16.9252 66.7102 17.759 66.6875 18.5968C66.6798 19.3117 66.5243 20.0174 66.2309 20.6695C65.9375 21.3215 65.5124 21.9059 64.9824 22.3858C61.3866 25.5686 55.4188 26.6902 51.7207 27.0843C52.1754 23.0716 53.4258 17.2403 56.457 13.8339ZM32.1729 13.9703C33.3473 12.796 34.9378 12.1329 36.5986 12.125H36.7842C37.4992 12.1328 38.2049 12.2882 38.8569 12.5816C39.509 12.875 40.0933 13.3001 40.5733 13.8301C43.7523 17.4221 44.8739 23.3786 45.2679 27.0615C41.585 26.6826 35.6286 25.5459 32.0365 22.3669C31.5065 21.8869 31.0814 21.3026 30.788 20.6505C30.4946 19.9985 30.3392 19.2928 30.3314 18.5778C30.3079 17.7262 30.4577 16.8786 30.7717 16.0866C31.0856 15.2946 31.5572 14.5746 32.1578 13.9703H32.1729ZM15.1562 33.3438H45.4688V45.4688H15.1562V33.3438ZM21.2188 51.5313H45.4688V75.7813H21.2188V51.5313ZM75.7812 75.7813H51.5312V51.5313H75.7812V75.7813ZM81.8438 45.4688H51.5312V33.3438H81.8438V45.4688Z" fill="black"/>
</svg>
