<svg width="97" height="97" viewBox="0 0 97 97" fill="none" xmlns="http://www.w3.org/2000/svg">
<path d="M48.5 9.09375C40.7062 9.09375 33.0874 11.4049 26.6071 15.7349C20.1268 20.0649 15.076 26.2193 12.0934 33.4199C9.11082 40.6204 8.33045 48.5437 9.85095 56.1878C11.3714 63.8318 15.1245 70.8534 20.6356 76.3644C26.1467 81.8755 33.1682 85.6286 40.8122 87.1491C48.4563 88.6696 56.3796 87.8892 63.5801 84.9066C70.7807 81.9241 76.9351 76.8733 81.2651 70.3929C85.5951 63.9126 87.9063 56.2938 87.9063 48.5C87.8952 38.0522 83.74 28.0355 76.3523 20.6478C68.9645 13.26 58.9478 9.10478 48.5 9.09375ZM48.5 81.8438C41.9052 81.8438 35.4586 79.8882 29.9752 76.2243C24.4919 72.5605 20.2181 67.3529 17.6944 61.2601C15.1707 55.1673 14.5104 48.463 15.797 41.995C17.0835 35.5269 20.2592 29.5856 24.9224 24.9224C29.5856 20.2592 35.5269 17.0835 41.995 15.7969C48.463 14.5104 55.1673 15.1707 61.2601 17.6944C67.3529 20.2181 72.5605 24.4919 76.2243 29.9752C79.8882 35.4586 81.8438 41.9052 81.8438 48.5C81.8337 57.3402 78.3175 65.8155 72.0665 72.0665C65.8155 78.3175 57.3403 81.8337 48.5 81.8438ZM53.0469 48.5C53.0469 49.3993 52.7802 50.2784 52.2806 51.0261C51.781 51.7738 51.0709 52.3566 50.24 52.7008C49.4092 53.0449 48.495 53.135 47.613 52.9595C46.731 52.7841 45.9208 52.351 45.2849 51.7151C44.649 51.0792 44.216 50.2691 44.0405 49.3871C43.8651 48.505 43.9551 47.5908 44.2993 46.76C44.6434 45.9292 45.2262 45.219 45.9739 44.7194C46.7216 44.2198 47.6007 43.9531 48.5 43.9531C49.7059 43.9531 50.8624 44.4322 51.7151 45.2849C52.5678 46.1376 53.0469 47.2941 53.0469 48.5ZM69.7188 48.5C69.7188 49.3993 69.4521 50.2784 68.9525 51.0261C68.4529 51.7738 67.7427 52.3566 66.9119 52.7008C66.0811 53.0449 65.1669 53.135 64.2848 52.9595C63.4028 52.7841 62.5927 52.351 61.9568 51.7151C61.3209 51.0792 60.8878 50.2691 60.7124 49.3871C60.5369 48.505 60.627 47.5908 60.9711 46.76C61.3153 45.9292 61.8981 45.219 62.6458 44.7194C63.3935 44.2198 64.2726 43.9531 65.1719 43.9531C66.3778 43.9531 67.5343 44.4322 68.387 45.2849C69.2397 46.1376 69.7188 47.2941 69.7188 48.5ZM36.375 48.5C36.375 49.3993 36.1083 50.2784 35.6087 51.0261C35.1091 51.7738 34.399 52.3566 33.5682 52.7008C32.7373 53.0449 31.8231 53.135 30.9411 52.9595C30.0591 52.7841 29.2489 52.351 28.613 51.7151C27.9771 51.0792 27.5441 50.2691 27.3686 49.3871C27.1932 48.505 27.2832 47.5908 27.6274 46.76C27.9715 45.9292 28.5543 45.219 29.302 44.7194C30.0498 44.2198 30.9289 43.9531 31.8281 43.9531C33.034 43.9531 34.1906 44.4322 35.0433 45.2849C35.896 46.1376 36.375 47.2941 36.375 48.5Z" fill="black"/>
</svg>
