<svg width="97" height="97" viewBox="0 0 97 97" fill="none" xmlns="http://www.w3.org/2000/svg">
<path d="M78.8125 9.09375H27.2812C24.0655 9.09375 20.9815 10.3712 18.7076 12.6451C16.4337 14.919 15.1563 18.003 15.1562 21.2188V84.875C15.1562 85.6789 15.4756 86.45 16.0441 87.0184C16.6126 87.5869 17.3836 87.9062 18.1875 87.9062H72.75C73.5539 87.9062 74.325 87.5869 74.8934 87.0184C75.4619 86.45 75.7812 85.6789 75.7812 84.875C75.7812 84.0711 75.4619 83.3 74.8934 82.7316C74.325 82.1631 73.5539 81.8438 72.75 81.8438H21.2188C21.2188 80.2359 21.8575 78.6939 22.9944 77.5569C24.1314 76.42 25.6734 75.7812 27.2812 75.7812H78.8125C79.6164 75.7812 80.3875 75.4619 80.9559 74.8934C81.5244 74.325 81.8438 73.5539 81.8438 72.75V12.125C81.8438 11.3211 81.5244 10.5501 80.9559 9.98158C80.3875 9.41311 79.6164 9.09375 78.8125 9.09375ZM75.7812 69.7188H27.2812C25.1523 69.7158 23.0606 70.2767 21.2188 71.3443V21.2188C21.2188 19.6109 21.8575 18.0689 22.9944 16.9319C24.1314 15.795 25.6734 15.1562 27.2812 15.1562H75.7812V69.7188Z" fill="black"/>
</svg>
