<svg width="97" height="97" viewBox="0 0 97 97" fill="none" xmlns="http://www.w3.org/2000/svg">
<path d="M84.875 18.1875H12.125C10.5171 18.1875 8.9751 18.8262 7.83816 19.9632C6.70123 21.1001 6.0625 22.6421 6.0625 24.25V72.75C6.0625 74.3579 6.70123 75.8999 7.83816 77.0368C8.9751 78.1738 10.5171 78.8125 12.125 78.8125H84.875C86.4829 78.8125 88.0249 78.1738 89.1618 77.0368C90.2988 75.8999 90.9375 74.3579 90.9375 72.75V24.25C90.9375 22.6421 90.2988 21.1001 89.1618 19.9632C88.0249 18.8262 86.4829 18.1875 84.875 18.1875ZM84.875 24.25V33.3438H12.125V24.25H84.875ZM84.875 72.75H12.125V39.4062H84.875V72.75ZM78.8125 63.6562C78.8125 64.4602 78.4931 65.2312 77.9247 65.7997C77.3562 66.3681 76.5852 66.6875 75.7812 66.6875H63.6562C62.8523 66.6875 62.0813 66.3681 61.5128 65.7997C60.9444 65.2312 60.625 64.4602 60.625 63.6562C60.625 62.8523 60.9444 62.0813 61.5128 61.5128C62.0813 60.9444 62.8523 60.625 63.6562 60.625H75.7812C76.5852 60.625 77.3562 60.9444 77.9247 61.5128C78.4931 62.0813 78.8125 62.8523 78.8125 63.6562ZM54.5625 63.6562C54.5625 64.4602 54.2431 65.2312 53.6747 65.7997C53.1062 66.3681 52.3352 66.6875 51.5312 66.6875H45.4688C44.6648 66.6875 43.8938 66.3681 43.3253 65.7997C42.7569 65.2312 42.4375 64.4602 42.4375 63.6562C42.4375 62.8523 42.7569 62.0813 43.3253 61.5128C43.8938 60.9444 44.6648 60.625 45.4688 60.625H51.5312C52.3352 60.625 53.1062 60.9444 53.6747 61.5128C54.2431 62.0813 54.5625 62.8523 54.5625 63.6562Z" fill="black"/>
</svg>
