<svg width="97" height="97" viewBox="0 0 97 97" fill="none" xmlns="http://www.w3.org/2000/svg">
<path d="M83.098 41.1795L52.7855 10.867C51.6486 9.73095 50.1072 9.09277 48.5 9.09277C46.8929 9.09277 45.3514 9.73095 44.2146 10.867L13.9021 41.1795C13.3364 41.741 12.888 42.4094 12.5829 43.1457C12.2778 43.8821 12.1222 44.6717 12.125 45.4688V81.8438C12.125 82.6477 12.4444 83.4187 13.0129 83.9872C13.5813 84.5556 14.3524 84.875 15.1563 84.875H81.8438C82.6477 84.875 83.4187 84.5556 83.9872 83.9872C84.5557 83.4187 84.875 82.6477 84.875 81.8438V45.4688C84.8779 44.6717 84.7222 43.8821 84.4172 43.1457C84.1121 42.4094 83.6637 41.741 83.098 41.1795ZM78.8125 78.8125H18.1875V45.4688L48.5 15.1563L78.8125 45.4688V78.8125Z" fill="black"/>
</svg>
