<svg width="38" height="69" viewBox="0 0 38 69" fill="none" xmlns="http://www.w3.org/2000/svg">
<path d="M0.916483 67.8377C0.625933 67.5475 0.395434 67.2028 0.238173 66.8234C0.0809081 66.444 -3.20968e-05 66.0374 -3.20968e-05 65.6267C-3.20968e-05 65.2161 0.0809081 64.8094 0.238173 64.43C0.395434 64.0507 0.625933 63.706 0.916483 63.4158L29.9595 34.3767L0.916483 5.33767C0.330107 4.7513 0.000681252 3.956 0.000681252 3.12674C0.000681252 2.29747 0.330107 1.50218 0.916483 0.9158C1.50286 0.329423 2.29816 1.63467e-08 3.12742 0C3.95669 -1.63467e-08 4.75199 0.329423 5.33836 0.9158L36.5884 32.1658C36.8789 32.456 37.1094 32.8007 37.2667 33.18C37.4239 33.5594 37.5049 33.9661 37.5049 34.3767C37.5049 34.7874 37.4239 35.1941 37.2667 35.5734C37.1094 35.9528 36.8789 36.2974 36.5884 36.5877L5.33836 67.8377C5.04814 68.1282 4.70348 68.3587 4.32411 68.516C3.94474 68.6733 3.5381 68.7542 3.12742 68.7542C2.71675 68.7542 2.3101 68.6733 1.93073 68.516C1.55137 68.3587 1.20671 68.1282 0.916483 67.8377Z" fill="black"/>
</svg>
