<svg width="50" height="50" viewBox="0 0 50 50" fill="none" xmlns="http://www.w3.org/2000/svg">
<rect x="5.67004" y="11.3402" width="39.1753" height="27.3196" fill="#2A9D8F"/>
<path d="M43.75 9.375H6.25C5.4212 9.375 4.62634 9.70424 4.04029 10.2903C3.45424 10.8763 3.125 11.6712 3.125 12.5V37.5C3.125 38.3288 3.45424 39.1237 4.04029 39.7097C4.62634 40.2958 5.4212 40.625 6.25 40.625H43.75C44.5788 40.625 45.3737 40.2958 45.9597 39.7097C46.5458 39.1237 46.875 38.3288 46.875 37.5V12.5C46.875 11.6712 46.5458 10.8763 45.9597 10.2903C45.3737 9.70424 44.5788 9.375 43.75 9.375ZM43.75 12.5V17.1875H6.25V12.5H43.75ZM43.75 37.5H6.25V20.3125H43.75V37.5ZM40.625 32.8125C40.625 33.2269 40.4604 33.6243 40.1674 33.9174C39.8743 34.2104 39.4769 34.375 39.0625 34.375H32.8125C32.3981 34.375 32.0007 34.2104 31.7076 33.9174C31.4146 33.6243 31.25 33.2269 31.25 32.8125C31.25 32.3981 31.4146 32.0007 31.7076 31.7076C32.0007 31.4146 32.3981 31.25 32.8125 31.25H39.0625C39.4769 31.25 39.8743 31.4146 40.1674 31.7076C40.4604 32.0007 40.625 32.3981 40.625 32.8125ZM28.125 32.8125C28.125 33.2269 27.9604 33.6243 27.6674 33.9174C27.3743 34.2104 26.9769 34.375 26.5625 34.375H23.4375C23.0231 34.375 22.6257 34.2104 22.3326 33.9174C22.0396 33.6243 21.875 33.2269 21.875 32.8125C21.875 32.3981 22.0396 32.0007 22.3326 31.7076C22.6257 31.4146 23.0231 31.25 23.4375 31.25H26.5625C26.9769 31.25 27.3743 31.4146 27.6674 31.7076C27.9604 32.0007 28.125 32.3981 28.125 32.8125Z" fill="black"/>
</svg>
