<svg width="50" height="50" viewBox="0 0 50 50" fill="none" xmlns="http://www.w3.org/2000/svg">
<circle cx="25" cy="25" r="20.3608" fill="#F9C74F"/>
<path d="M25 4.6875C20.9826 4.6875 17.0554 5.87881 13.715 8.11077C10.3746 10.3427 7.77111 13.5151 6.23371 17.2267C4.6963 20.9384 4.29405 25.0225 5.07781 28.9628C5.86157 32.903 7.79615 36.5224 10.6369 39.3631C13.4777 42.2039 17.097 44.1384 21.0372 44.9222C24.9775 45.706 29.0616 45.3037 32.7733 43.7663C36.4849 42.2289 39.6573 39.6254 41.8892 36.285C44.1212 32.9446 45.3125 29.0174 45.3125 25C45.3068 19.6145 43.1649 14.4513 39.3568 10.6432C35.5487 6.83507 30.3855 4.69319 25 4.6875ZM25 42.1875C21.6006 42.1875 18.2776 41.1795 15.4511 39.2909C12.6247 37.4023 10.4217 34.718 9.12083 31.5774C7.81995 28.4368 7.47958 24.9809 8.14276 21.6469C8.80595 18.3128 10.4429 15.2503 12.8466 12.8466C15.2503 10.4429 18.3128 8.80594 21.6469 8.14275C24.9809 7.47957 28.4368 7.81994 31.5774 9.12082C34.718 10.4217 37.4023 12.6247 39.2909 15.4511C41.1795 18.2776 42.1875 21.6006 42.1875 25C42.1823 29.5568 40.3699 33.9255 37.1477 37.1477C33.9255 40.3699 29.5568 42.1823 25 42.1875ZM32.8125 28.9062C32.8125 30.3567 32.2363 31.7477 31.2108 32.7732C30.1852 33.7988 28.7942 34.375 27.3438 34.375H26.5625V35.9375C26.5625 36.3519 26.3979 36.7493 26.1049 37.0424C25.8118 37.3354 25.4144 37.5 25 37.5C24.5856 37.5 24.1882 37.3354 23.8952 37.0424C23.6021 36.7493 23.4375 36.3519 23.4375 35.9375V34.375H20.3125C19.8981 34.375 19.5007 34.2104 19.2077 33.9174C18.9146 33.6243 18.75 33.2269 18.75 32.8125C18.75 32.3981 18.9146 32.0007 19.2077 31.7076C19.5007 31.4146 19.8981 31.25 20.3125 31.25H27.3438C27.9654 31.25 28.5615 31.0031 29.001 30.5635C29.4406 30.124 29.6875 29.5279 29.6875 28.9062C29.6875 28.2846 29.4406 27.6885 29.001 27.249C28.5615 26.8094 27.9654 26.5625 27.3438 26.5625H22.6563C21.2059 26.5625 19.8149 25.9863 18.7893 24.9607C17.7637 23.9352 17.1875 22.5442 17.1875 21.0938C17.1875 19.6433 17.7637 18.2523 18.7893 17.2268C19.8149 16.2012 21.2059 15.625 22.6563 15.625H23.4375V14.0625C23.4375 13.6481 23.6021 13.2507 23.8952 12.9576C24.1882 12.6646 24.5856 12.5 25 12.5C25.4144 12.5 25.8118 12.6646 26.1049 12.9576C26.3979 13.2507 26.5625 13.6481 26.5625 14.0625V15.625H29.6875C30.1019 15.625 30.4993 15.7896 30.7924 16.0826C31.0854 16.3757 31.25 16.7731 31.25 17.1875C31.25 17.6019 31.0854 17.9993 30.7924 18.2924C30.4993 18.5854 30.1019 18.75 29.6875 18.75H22.6563C22.0347 18.75 21.4385 18.9969 20.999 19.4365C20.5594 19.876 20.3125 20.4721 20.3125 21.0938C20.3125 21.7154 20.5594 22.3115 20.999 22.751C21.4385 23.1906 22.0347 23.4375 22.6563 23.4375H27.3438C28.7942 23.4375 30.1852 24.0137 31.2108 25.0393C32.2363 26.0648 32.8125 27.4558 32.8125 28.9062Z" fill="black"/>
</svg>
