<svg width="50" height="50" viewBox="0 0 50 50" fill="none" xmlns="http://www.w3.org/2000/svg">
<circle cx="25.2578" cy="24.7422" r="18.5567" fill="#F1FAEE"/>
<path d="M25 4.6875C20.9826 4.6875 17.0554 5.87881 13.715 8.11077C10.3746 10.3427 7.77111 13.5151 6.23371 17.2267C4.6963 20.9384 4.29405 25.0225 5.07781 28.9628C5.86157 32.903 7.79615 36.5224 10.6369 39.3631C13.4777 42.2039 17.097 44.1384 21.0372 44.9222C24.9775 45.706 29.0616 45.3037 32.7733 43.7663C36.4849 42.2289 39.6573 39.6254 41.8892 36.285C44.1212 32.9446 45.3125 29.0174 45.3125 25C45.3068 19.6145 43.1649 14.4513 39.3568 10.6432C35.5487 6.83507 30.3855 4.69319 25 4.6875ZM25 42.1875C21.6006 42.1875 18.2776 41.1795 15.4511 39.2909C12.6247 37.4023 10.4217 34.718 9.12083 31.5774C7.81995 28.4368 7.47958 24.9809 8.14276 21.6469C8.80595 18.3128 10.4429 15.2503 12.8466 12.8466C15.2503 10.4429 18.3128 8.80594 21.6469 8.14275C24.9809 7.47957 28.4368 7.81994 31.5774 9.12082C34.718 10.4217 37.4023 12.6247 39.2909 15.4511C41.1795 18.2776 42.1875 21.6006 42.1875 25C42.1823 29.5568 40.3699 33.9255 37.1477 37.1477C33.9255 40.3699 29.5568 42.1823 25 42.1875ZM27.3438 25C27.3438 25.4636 27.2063 25.9167 26.9488 26.3021C26.6912 26.6875 26.3252 26.9879 25.8969 27.1653C25.4687 27.3427 24.9974 27.3892 24.5428 27.2987C24.0881 27.2083 23.6705 26.9851 23.3427 26.6573C23.0149 26.3295 22.7917 25.9119 22.7013 25.4572C22.6109 25.0026 22.6573 24.5313 22.8347 24.1031C23.0121 23.6748 23.3125 23.3088 23.6979 23.0512C24.0833 22.7937 24.5365 22.6562 25 22.6562C25.6216 22.6562 26.2178 22.9032 26.6573 23.3427C27.0968 23.7823 27.3438 24.3784 27.3438 25ZM35.9375 25C35.9375 25.4636 35.8 25.9167 35.5425 26.3021C35.285 26.6875 34.9189 26.9879 34.4907 27.1653C34.0624 27.3427 33.5912 27.3892 33.1365 27.2987C32.6819 27.2083 32.2643 26.9851 31.9365 26.6573C31.6087 26.3295 31.3855 25.9119 31.295 25.4572C31.2046 25.0026 31.251 24.5313 31.4284 24.1031C31.6058 23.6748 31.9062 23.3088 32.2916 23.0512C32.6771 22.7937 33.1302 22.6562 33.5938 22.6562C34.2154 22.6562 34.8115 22.9032 35.251 23.3427C35.6906 23.7823 35.9375 24.3784 35.9375 25ZM18.75 25C18.75 25.4636 18.6126 25.9167 18.355 26.3021C18.0975 26.6875 17.7314 26.9879 17.3032 27.1653C16.8749 27.3427 16.4037 27.3892 15.949 27.2987C15.4944 27.2083 15.0768 26.9851 14.749 26.6573C14.4212 26.3295 14.198 25.9119 14.1075 25.4572C14.0171 25.0026 14.0635 24.5313 14.2409 24.1031C14.4183 23.6748 14.7187 23.3088 15.1041 23.0512C15.4896 22.7937 15.9427 22.6562 16.4063 22.6562C17.0279 22.6562 17.624 22.9032 18.0635 23.3427C18.5031 23.7823 18.75 24.3784 18.75 25Z" fill="black"/>
</svg>
