<svg width="50" height="50" viewBox="0 0 50 50" fill="none" xmlns="http://www.w3.org/2000/svg">
<rect x="10.8247" y="26.2887" width="12.8866" height="13.4021" fill="#2A9D8F"/>
<rect x="26.2887" y="26.2887" width="12.8866" height="13.4021" fill="#2A9D8F"/>
<rect x="7.73193" y="17.0103" width="15.9794" height="6.70103" fill="#E63946"/>
<rect x="26.2887" y="17.0103" width="15.9794" height="6.70103" fill="#E63946"/>
<ellipse cx="19.8454" cy="10.567" rx="5.41237" ry="4.89691" fill="#E63946"/>
<ellipse cx="30.6701" cy="10.567" rx="5.41237" ry="4.89691" fill="#E63946"/>
<path d="M42.1875 14.0625H35.3359C35.4121 13.9981 35.4902 13.9356 35.5645 13.8672C36.1576 13.3402 36.6357 12.6965 36.9687 11.9763C37.3018 11.2561 37.4826 10.475 37.5 9.68168C37.5257 8.81386 37.3737 7.94995 37.0534 7.14298C36.7331 6.33602 36.2512 5.60304 35.6374 4.98904C35.0236 4.37503 34.2907 3.89296 33.4839 3.57242C32.677 3.25189 31.8131 3.09964 30.9453 3.12504C30.1517 3.14213 29.3702 3.32286 28.6496 3.65591C27.9291 3.98896 27.285 4.46717 26.7578 5.06059C26.0283 5.90608 25.4352 6.86028 25 7.88871C24.5648 6.86028 23.9717 5.90608 23.2422 5.06059C22.715 4.46717 22.0709 3.98896 21.3504 3.65591C20.6298 3.32286 19.8483 3.14213 19.0547 3.12504C18.1869 3.09964 17.323 3.25189 16.5161 3.57242C15.7093 3.89296 14.9764 4.37503 14.3626 4.98904C13.7488 5.60304 13.2669 6.33602 12.9466 7.14298C12.6263 7.94995 12.4743 8.81386 12.5 9.68168C12.5174 10.475 12.6982 11.2561 13.0313 11.9763C13.3643 12.6965 13.8424 13.3402 14.4355 13.8672C14.5098 13.9317 14.5879 13.9942 14.6641 14.0625H7.8125C6.9837 14.0625 6.18884 14.3918 5.60279 14.9778C5.01674 15.5639 4.6875 16.3587 4.6875 17.1875V23.4375C4.6875 24.2663 5.01674 25.0612 5.60279 25.6472C6.18884 26.2333 6.9837 26.5625 7.8125 26.5625V39.0625C7.8125 39.8913 8.14174 40.6862 8.72779 41.2722C9.31384 41.8583 10.1087 42.1875 10.9375 42.1875H39.0625C39.8913 42.1875 40.6862 41.8583 41.2722 41.2722C41.8583 40.6862 42.1875 39.8913 42.1875 39.0625V26.5625C43.0163 26.5625 43.8112 26.2333 44.3972 25.6472C44.9833 25.0612 45.3125 24.2663 45.3125 23.4375V17.1875C45.3125 16.3587 44.9833 15.5639 44.3972 14.9778C43.8112 14.3918 43.0163 14.0625 42.1875 14.0625ZM29.1016 7.1309C29.349 6.8577 29.6502 6.63859 29.9863 6.48735C30.3224 6.3361 30.6861 6.25597 31.0547 6.25199H31.1504C31.5824 6.25469 32.0094 6.34359 32.4066 6.51346C32.8038 6.68334 33.1631 6.93078 33.4634 7.24128C33.7637 7.55179 33.999 7.91911 34.1556 8.32173C34.3121 8.72435 34.3867 9.15416 34.375 9.58598C34.371 9.95453 34.2909 10.3183 34.1396 10.6544C33.9884 10.9905 33.7693 11.2917 33.4961 11.5391C31.6426 13.1797 28.5664 13.7579 26.6602 13.961C26.8945 11.8926 27.5391 8.88676 29.1016 7.1309ZM16.584 7.20121C17.1893 6.59592 18.0092 6.25409 18.8652 6.25004H18.9609C19.3295 6.25402 19.6932 6.33414 20.0293 6.48539C20.3655 6.63664 20.6667 6.85575 20.9141 7.12895C22.5527 8.98051 23.1309 12.0508 23.334 13.9493C21.4355 13.7539 18.3652 13.168 16.5137 11.5293C16.2405 11.2819 16.0214 10.9807 15.8701 10.6446C15.7189 10.3085 15.6387 9.94476 15.6348 9.57621C15.6227 9.13722 15.6999 8.70034 15.8617 8.29208C16.0235 7.88382 16.2666 7.51269 16.5762 7.20121H16.584ZM7.8125 17.1875H23.4375V23.4375H7.8125V17.1875ZM10.9375 26.5625H23.4375V39.0625H10.9375V26.5625ZM39.0625 39.0625H26.5625V26.5625H39.0625V39.0625ZM42.1875 23.4375H26.5625V17.1875H42.1875V23.4375Z" fill="black"/>
</svg>
