<svg width="50" height="50" viewBox="0 0 50 50" fill="none" xmlns="http://www.w3.org/2000/svg">
<rect x="7.73193" y="22.1649" width="35.0515" height="20.6186" fill="#457B9D"/>
<path d="M25 7.21655L41.2938 22.6805H8.7062L25 7.21655Z" fill="#457B9D"/>
<path d="M42.834 21.2266L27.209 5.60158C26.623 5.01597 25.8285 4.68701 25 4.68701C24.1716 4.68701 23.377 5.01597 22.791 5.60158L7.16603 21.2266C6.87444 21.516 6.6433 21.8605 6.48604 22.2401C6.32879 22.6196 6.24856 23.0267 6.25002 23.4375V42.1875C6.25002 42.6019 6.41464 42.9993 6.70767 43.2924C7.00069 43.5854 7.39812 43.75 7.81252 43.75H42.1875C42.6019 43.75 42.9994 43.5854 43.2924 43.2924C43.5854 42.9993 43.75 42.6019 43.75 42.1875V23.4375C43.7515 23.0267 43.6713 22.6196 43.514 22.2401C43.3567 21.8605 43.1256 21.516 42.834 21.2266ZM40.625 40.625H9.37502V23.4375L25 7.81252L40.625 23.4375V40.625Z" fill="black"/>
</svg>
