<svg width="50" height="50" viewBox="0 0 50 50" fill="none" xmlns="http://www.w3.org/2000/svg">
<ellipse cx="25.2577" cy="22.165" rx="19.0722" ry="13.9175" fill="#E8737B"/>
<ellipse cx="43.2989" cy="24.7422" rx="3.60825" ry="5.6701" fill="#E8737B"/>
<ellipse cx="16.2371" cy="30.9279" rx="6.95876" ry="10.8247" fill="#E8737B"/>
<ellipse cx="35.8247" cy="30.9279" rx="6.95876" ry="10.8247" fill="#E8737B"/>
<rect x="20.1031" y="34.5361" width="11.8557" height="3.60825" fill="#E8737B"/>
<path d="M37.5 22.6562C37.5 23.1198 37.3625 23.5729 37.105 23.9584C36.8475 24.3438 36.4814 24.6442 36.0532 24.8216C35.6249 24.999 35.1537 25.0454 34.699 24.955C34.2444 24.8645 33.8267 24.6413 33.499 24.3135C33.1712 23.9858 32.948 23.5681 32.8575 23.1135C32.7671 22.6588 32.8135 22.1876 32.9909 21.7593C33.1683 21.3311 33.4687 20.965 33.8541 20.7075C34.2396 20.45 34.6927 20.3125 35.1562 20.3125C35.7779 20.3125 36.374 20.5594 36.8135 20.999C37.2531 21.4385 37.5 22.0346 37.5 22.6562ZM29.6875 12.5H21.875C21.4606 12.5 21.0632 12.6646 20.7701 12.9576C20.4771 13.2507 20.3125 13.6481 20.3125 14.0625C20.3125 14.4769 20.4771 14.8743 20.7701 15.1674C21.0632 15.4604 21.4606 15.625 21.875 15.625H29.6875C30.1019 15.625 30.4993 15.4604 30.7924 15.1674C31.0854 14.8743 31.25 14.4769 31.25 14.0625C31.25 13.6481 31.0854 13.2507 30.7924 12.9576C30.4993 12.6646 30.1019 12.5 29.6875 12.5ZM48.4375 21.875V28.125C48.4375 29.3682 47.9436 30.5605 47.0646 31.4396C46.1855 32.3186 44.9932 32.8125 43.75 32.8125H43.2891L40.123 41.6758C39.9063 42.2829 39.5071 42.8081 38.9801 43.1794C38.4532 43.5508 37.8243 43.7501 37.1797 43.75H34.6953C34.0507 43.7501 33.4218 43.5508 32.8949 43.1794C32.3679 42.8081 31.9687 42.2829 31.752 41.6758L31.377 40.625H20.1855L19.8105 41.6758C19.5938 42.2829 19.1946 42.8081 18.6676 43.1794C18.1407 43.5508 17.5118 43.7501 16.8672 43.75H14.3828C13.7382 43.7501 13.1093 43.5508 12.5824 43.1794C12.0554 42.8081 11.6562 42.2829 11.4395 41.6758L8.98438 34.8086C6.64879 32.1652 5.18635 28.8652 4.79688 25.3594C4.29262 25.6242 3.87035 26.0219 3.57568 26.5093C3.28102 26.9967 3.12518 27.5554 3.125 28.125C3.125 28.5394 2.96038 28.9368 2.66735 29.2299C2.37433 29.5229 1.9769 29.6875 1.5625 29.6875C1.1481 29.6875 0.750671 29.5229 0.457646 29.2299C0.16462 28.9368 0 28.5394 0 28.125C0.00238746 26.7316 0.470356 25.3789 1.32956 24.2819C2.18876 23.1849 3.38991 22.4065 4.74219 22.0703C5.09125 17.7643 7.04692 13.7471 10.2209 10.8163C13.3948 7.88546 17.5549 6.25549 21.875 6.25H42.1875C42.6019 6.25 42.9993 6.41462 43.2924 6.70765C43.5854 7.00067 43.75 7.3981 43.75 7.8125C43.75 8.2269 43.5854 8.62433 43.2924 8.91735C42.9993 9.21038 42.6019 9.375 42.1875 9.375H38.0098C40.6028 11.1943 42.6422 13.6954 43.9023 16.6016C43.9863 16.7969 44.0684 16.9922 44.1465 17.1875C45.3197 17.2871 46.4125 17.8246 47.2076 18.6931C48.0026 19.5616 48.4417 20.6975 48.4375 21.875ZM45.3125 21.875C45.3125 21.4606 45.1479 21.0632 44.8549 20.7701C44.5618 20.4771 44.1644 20.3125 43.75 20.3125H43.0352C42.7024 20.3129 42.3782 20.207 42.1098 20.0102C41.8414 19.8135 41.6428 19.5362 41.543 19.2188C40.6478 16.362 38.863 13.8661 36.4492 12.0952C34.0353 10.3244 31.1187 9.37126 28.125 9.375H21.875C19.1459 9.37486 16.4758 10.1688 14.1902 11.66C11.9046 13.1513 10.1022 15.2753 9.00298 17.7732C7.90373 20.2711 7.55506 23.0349 7.99949 25.7275C8.44391 28.4202 9.66222 30.9253 11.5059 32.9375C11.6468 33.0908 11.7557 33.2708 11.8262 33.4668L14.3828 40.625H16.8672L17.6133 38.5371C17.7216 38.2337 17.9211 37.9712 18.1843 37.7856C18.4476 37.5999 18.7618 37.5002 19.084 37.5H32.4785C32.8007 37.5002 33.1149 37.5999 33.3782 37.7856C33.6414 37.9712 33.8409 38.2337 33.9492 38.5371L34.6953 40.625H37.1797L40.7168 30.7246C40.8251 30.4212 41.0246 30.1587 41.2878 29.9731C41.5511 29.7874 41.8653 29.6877 42.1875 29.6875H43.75C44.1644 29.6875 44.5618 29.5229 44.8549 29.2299C45.1479 28.9368 45.3125 28.5394 45.3125 28.125V21.875Z" fill="black"/>
</svg>
