<svg width="50" height="50" viewBox="0 0 50 50" fill="none" xmlns="http://www.w3.org/2000/svg">
<rect x="10.8247" y="7.21655" width="28.866" height="29.3814" fill="#F3722C"/>
<path d="M41.1098 37.8726L38.1674 43.3879L35.2387 40.0188L41.1098 37.8726Z" fill="#F3722C"/>
<rect x="9.79382" y="38.6598" width="28.3505" height="4.12371" fill="#F3722C"/>
<path d="M40.625 4.6875H14.0625C12.4049 4.6875 10.8152 5.34598 9.64308 6.51808C8.47098 7.69018 7.8125 9.2799 7.8125 10.9375V43.75C7.8125 44.1644 7.97712 44.5618 8.27015 44.8549C8.56317 45.1479 8.9606 45.3125 9.375 45.3125H37.5C37.9144 45.3125 38.3118 45.1479 38.6049 44.8549C38.8979 44.5618 39.0625 44.1644 39.0625 43.75C39.0625 43.3356 38.8979 42.9382 38.6049 42.6451C38.3118 42.3521 37.9144 42.1875 37.5 42.1875H10.9375C10.9375 41.3587 11.2667 40.5638 11.8528 39.9778C12.4388 39.3917 13.2337 39.0625 14.0625 39.0625H40.625C41.0394 39.0625 41.4368 38.8979 41.7299 38.6049C42.0229 38.3118 42.1875 37.9144 42.1875 37.5V6.25C42.1875 5.8356 42.0229 5.43817 41.7299 5.14515C41.4368 4.85212 41.0394 4.6875 40.625 4.6875ZM39.0625 35.9375H14.0625C12.9651 35.936 11.8869 36.2251 10.9375 36.7754V10.9375C10.9375 10.1087 11.2667 9.31384 11.8528 8.72779C12.4388 8.14174 13.2337 7.8125 14.0625 7.8125H39.0625V35.9375Z" fill="black"/>
</svg>
