<svg width="50" height="50" viewBox="0 0 50 50" fill="none" xmlns="http://www.w3.org/2000/svg">
<rect x="2.57727" y="24.7423" width="44.8454" height="8.76289" fill="#1BEDCA"/>
<circle cx="12.6288" cy="34.2784" r="3.35052" fill="#1BEDCA"/>
<ellipse cx="37.1135" cy="34.2784" rx="4.12371" ry="3.35052" fill="#1BEDCA"/>
<path d="M7.98968 13.9175L12.2305 22.036H3.74883L7.98968 13.9175Z" fill="#1BEDCA"/>
<path d="M31.701 13.9175L37.281 22.036H26.1209L31.701 13.9175Z" fill="#1BEDCA"/>
<rect x="7.21655" y="13.9175" width="24.7423" height="8.76289" fill="#1BEDCA"/>
<path d="M46.875 21.875H41.2715L32.8125 13.416C32.5234 13.1246 32.1792 12.8935 31.8 12.7363C31.4207 12.579 31.014 12.4987 30.6035 12.5H8.64844C8.13514 12.501 7.62999 12.6283 7.17761 12.8709C6.72523 13.1134 6.33956 13.4637 6.05469 13.8906L0.261719 22.5703C0.0915076 22.8276 0.000509488 23.1291 0 23.4375L0 32.8125C0 33.6413 0.32924 34.4362 0.915291 35.0222C1.50134 35.6083 2.2962 35.9375 3.125 35.9375H6.44531C6.78953 37.2819 7.57141 38.4735 8.66767 39.3245C9.76394 40.1754 11.1122 40.6373 12.5 40.6373C13.8878 40.6373 15.2361 40.1754 16.3323 39.3245C17.4286 38.4735 18.2105 37.2819 18.5547 35.9375H31.4453C31.7895 37.2819 32.5714 38.4735 33.6677 39.3245C34.7639 40.1754 36.1122 40.6373 37.5 40.6373C38.8878 40.6373 40.2361 40.1754 41.3323 39.3245C42.4286 38.4735 43.2105 37.2819 43.5547 35.9375H46.875C47.7038 35.9375 48.4987 35.6083 49.0847 35.0222C49.6708 34.4362 50 33.6413 50 32.8125V25C50 24.1712 49.6708 23.3764 49.0847 22.7903C48.4987 22.2043 47.7038 21.875 46.875 21.875ZM8.64844 15.625H30.6035L36.8535 21.875H4.49219L8.64844 15.625ZM12.5 37.5C11.8819 37.5 11.2777 37.3167 10.7638 36.9734C10.2499 36.63 9.8494 36.1419 9.61288 35.5709C9.37635 34.9999 9.31447 34.3716 9.43505 33.7654C9.55562 33.1592 9.85325 32.6023 10.2903 32.1653C10.7273 31.7283 11.2842 31.4306 11.8903 31.3101C12.4965 31.1895 13.1249 31.2514 13.6959 31.4879C14.2669 31.7244 14.755 32.125 15.0983 32.6389C15.4417 33.1528 15.625 33.757 15.625 34.375C15.625 35.2038 15.2958 35.9987 14.7097 36.5847C14.1237 37.1708 13.3288 37.5 12.5 37.5ZM37.5 37.5C36.8819 37.5 36.2777 37.3167 35.7638 36.9734C35.2499 36.63 34.8494 36.1419 34.6129 35.5709C34.3764 34.9999 34.3145 34.3716 34.435 33.7654C34.5556 33.1592 34.8533 32.6023 35.2903 32.1653C35.7273 31.7283 36.2842 31.4306 36.8903 31.3101C37.4965 31.1895 38.1249 31.2514 38.6959 31.4879C39.2669 31.7244 39.755 32.125 40.0983 32.6389C40.4417 33.1528 40.625 33.757 40.625 34.375C40.625 35.2038 40.2958 35.9987 39.7097 36.5847C39.1237 37.1708 38.3288 37.5 37.5 37.5ZM46.875 32.8125H43.5547C43.2105 31.4681 42.4286 30.2765 41.3323 29.4256C40.2361 28.5746 38.8878 28.1128 37.5 28.1128C36.1122 28.1128 34.7639 28.5746 33.6677 29.4256C32.5714 30.2765 31.7895 31.4681 31.4453 32.8125H18.5547C18.2105 31.4681 17.4286 30.2765 16.3323 29.4256C15.2361 28.5746 13.8878 28.1128 12.5 28.1128C11.1122 28.1128 9.76394 28.5746 8.66767 29.4256C7.57141 30.2765 6.78953 31.4681 6.44531 32.8125H3.125V25H46.875V32.8125Z" fill="black"/>
</svg>
