<svg width="75" height="75" viewBox="0 0 75 75" fill="none" xmlns="http://www.w3.org/2000/svg">
<rect x="8.50488" y="17.0103" width="58.7629" height="40.9794" fill="#2A9D8F"/>
<path d="M65.625 14.0625H9.375C8.1318 14.0625 6.93951 14.5564 6.06044 15.4354C5.18136 16.3145 4.6875 17.5068 4.6875 18.75V56.25C4.6875 57.4932 5.18136 58.6855 6.06044 59.5646C6.93951 60.4436 8.1318 60.9375 9.375 60.9375H65.625C66.8682 60.9375 68.0605 60.4436 68.9396 59.5646C69.8186 58.6855 70.3125 57.4932 70.3125 56.25V18.75C70.3125 17.5068 69.8186 16.3145 68.9396 15.4354C68.0605 14.5564 66.8682 14.0625 65.625 14.0625ZM65.625 18.75V25.7812H9.375V18.75H65.625ZM65.625 56.25H9.375V30.4688H65.625V56.25ZM60.9375 49.2188C60.9375 49.8404 60.6906 50.4365 60.251 50.876C59.8115 51.3156 59.2154 51.5625 58.5938 51.5625H49.2188C48.5971 51.5625 48.001 51.3156 47.5615 50.876C47.1219 50.4365 46.875 49.8404 46.875 49.2188C46.875 48.5971 47.1219 48.001 47.5615 47.5615C48.001 47.1219 48.5971 46.875 49.2188 46.875H58.5938C59.2154 46.875 59.8115 47.1219 60.251 47.5615C60.6906 48.001 60.9375 48.5971 60.9375 49.2188ZM42.1875 49.2188C42.1875 49.8404 41.9406 50.4365 41.501 50.876C41.0615 51.3156 40.4654 51.5625 39.8438 51.5625H35.1562C34.5346 51.5625 33.9385 51.3156 33.499 50.876C33.0594 50.4365 32.8125 49.8404 32.8125 49.2188C32.8125 48.5971 33.0594 48.001 33.499 47.5615C33.9385 47.1219 34.5346 46.875 35.1562 46.875H39.8438C40.4654 46.875 41.0615 47.1219 41.501 47.5615C41.9406 48.001 42.1875 48.5971 42.1875 49.2188Z" fill="black"/>
</svg>
