<svg width="75" height="75" viewBox="0 0 75 75" fill="none" xmlns="http://www.w3.org/2000/svg">
<rect x="16.2373" y="39.433" width="19.3299" height="20.1031" fill="#2A9D8F"/>
<rect x="39.4326" y="39.433" width="19.3299" height="20.1031" fill="#2A9D8F"/>
<rect x="11.5977" y="25.5154" width="23.9691" height="10.0515" fill="#E63946"/>
<rect x="39.4326" y="25.5154" width="23.9691" height="10.0515" fill="#E63946"/>
<ellipse cx="29.768" cy="15.8505" rx="8.11856" ry="7.34536" fill="#E63946"/>
<ellipse cx="46.0053" cy="15.8505" rx="8.11856" ry="7.34536" fill="#E63946"/>
<path d="M63.2812 21.0938H53.0039C53.1182 20.9971 53.2354 20.9033 53.3467 20.8008C54.2365 20.0103 54.9535 19.0447 55.4531 17.9644C55.9527 16.8841 56.224 15.7124 56.25 14.5225C56.2885 13.2207 56.0605 11.9249 55.5801 10.7144C55.0996 9.50397 54.3768 8.4045 53.4561 7.48349C52.5354 6.56249 51.4361 5.83938 50.2258 5.35858C49.0155 4.87777 47.7197 4.6494 46.418 4.6875C45.2276 4.71314 44.0552 4.98423 42.9744 5.48381C41.8936 5.98339 40.9275 6.70069 40.1367 7.59082C39.0424 8.85907 38.1528 10.2904 37.5 11.833C36.8472 10.2904 35.9576 8.85907 34.8633 7.59082C34.0725 6.70069 33.1064 5.98339 32.0256 5.48381C30.9448 4.98423 29.7724 4.71314 28.582 4.6875C27.2803 4.6494 25.9845 4.87777 24.7742 5.35858C23.5639 5.83938 22.4646 6.56249 21.5439 7.48349C20.6232 8.4045 19.9004 9.50397 19.4199 10.7144C18.9395 11.9249 18.7115 13.2207 18.75 14.5225C18.776 15.7124 19.0473 16.8841 19.5469 17.9644C20.0465 19.0447 20.7635 20.0103 21.6533 20.8008C21.7646 20.8975 21.8818 20.9912 21.9961 21.0938H11.7188C10.4755 21.0938 9.28326 21.5876 8.40419 22.4667C7.52511 23.3458 7.03125 24.538 7.03125 25.7813V35.1563C7.03125 36.3995 7.52511 37.5917 8.40419 38.4708C9.28326 39.3499 10.4755 39.8438 11.7188 39.8438V58.5938C11.7188 59.837 12.2126 61.0292 13.0917 61.9083C13.9708 62.7874 15.163 63.2812 16.4062 63.2812H58.5938C59.837 63.2812 61.0292 62.7874 61.9083 61.9083C62.7874 61.0292 63.2812 59.837 63.2812 58.5938V39.8438C64.5245 39.8438 65.7167 39.3499 66.5958 38.4708C67.4749 37.5917 67.9688 36.3995 67.9688 35.1563V25.7813C67.9688 24.538 67.4749 23.3458 66.5958 22.4667C65.7167 21.5876 64.5245 21.0938 63.2812 21.0938ZM43.6523 10.6963C44.0234 10.2865 44.4753 9.95783 44.9794 9.73096C45.4836 9.50408 46.0292 9.38389 46.582 9.37793H46.7256C47.3735 9.38198 48.0142 9.51532 48.6099 9.77013C49.2057 10.0249 49.7446 10.3961 50.1951 10.8619C50.6456 11.3276 50.9985 11.8786 51.2333 12.4825C51.4682 13.0865 51.5801 13.7312 51.5625 14.3789C51.5565 14.9317 51.4363 15.4774 51.2095 15.9815C50.9826 16.4857 50.6539 16.9375 50.2441 17.3086C47.4639 19.7695 42.8496 20.6367 39.9902 20.9414C40.3418 17.8389 41.3086 13.3301 43.6523 10.6963ZM24.876 10.8018C25.784 9.89382 27.0138 9.38107 28.2978 9.375H28.4414C28.9942 9.38096 29.5399 9.50115 30.044 9.72803C30.5482 9.9549 31 10.2836 31.3711 10.6934C33.8291 13.4707 34.6963 18.0762 35.001 20.9238C32.1533 20.6309 27.5479 19.752 24.7705 17.2939C24.3607 16.9228 24.032 16.471 23.8052 15.9669C23.5783 15.4627 23.4581 14.9171 23.4521 14.3643C23.434 13.7058 23.5498 13.0504 23.7925 12.4381C24.0353 11.8257 24.3999 11.269 24.8643 10.8018H24.876ZM11.7188 25.7813H35.1562V35.1563H11.7188V25.7813ZM16.4062 39.8438H35.1562V58.5938H16.4062V39.8438ZM58.5938 58.5938H39.8438V39.8438H58.5938V58.5938ZM63.2812 35.1563H39.8438V25.7813H63.2812V35.1563Z" fill="black"/>
</svg>
