<svg width="75" height="75" viewBox="0 0 75 75" fill="none" xmlns="http://www.w3.org/2000/svg">
<circle cx="37.5002" cy="37.5" r="30.5412" fill="#F9C74F"/>
<path d="M37.5 7.03125C31.4739 7.03125 25.583 8.81821 20.5725 12.1662C15.5619 15.5141 11.6567 20.2727 9.35056 25.8401C7.04445 31.4075 6.44107 37.5338 7.61671 43.4442C8.79236 49.3545 11.6942 54.7835 15.9554 59.0447C20.2165 63.3058 25.6455 66.2076 31.5559 67.3833C37.4662 68.5589 43.5925 67.9556 49.1599 65.6494C54.7273 63.3433 59.4859 59.4381 62.8338 54.4275C66.1818 49.417 67.9688 43.5261 67.9688 37.5C67.9602 29.4218 64.7474 21.6769 59.0352 15.9648C53.3231 10.2526 45.5782 7.03978 37.5 7.03125ZM37.5 63.2812C32.401 63.2812 27.4164 61.7692 23.1767 58.9363C18.937 56.1034 15.6326 52.077 13.6812 47.3661C11.7299 42.6551 11.2194 37.4714 12.2141 32.4703C13.2089 27.4693 15.6643 22.8755 19.2699 19.2699C22.8755 15.6643 27.4693 13.2089 32.4703 12.2141C37.4714 11.2194 42.6552 11.7299 47.3661 13.6812C52.077 15.6326 56.1035 18.937 58.9363 23.1767C61.7692 27.4164 63.2813 32.4009 63.2813 37.5C63.2735 44.3352 60.5548 50.8883 55.7215 55.7215C50.8883 60.5548 44.3352 63.2735 37.5 63.2812ZM49.2188 43.3594C49.2188 45.535 48.3545 47.6215 46.8161 49.1599C45.2777 50.6982 43.1912 51.5625 41.0156 51.5625H39.8438V53.9062C39.8438 54.5278 39.5968 55.124 39.1573 55.5635C38.7178 56.0031 38.1216 56.25 37.5 56.25C36.8784 56.25 36.2823 56.0031 35.8427 55.5635C35.4032 55.124 35.1563 54.5278 35.1563 53.9062V51.5625H30.4688C29.8472 51.5625 29.251 51.3156 28.8115 50.876C28.3719 50.4365 28.125 49.8403 28.125 49.2187C28.125 48.5971 28.3719 48.001 28.8115 47.5615C29.251 47.1219 29.8472 46.875 30.4688 46.875H41.0156C41.948 46.875 42.8422 46.5046 43.5016 45.8453C44.1609 45.186 44.5313 44.2918 44.5313 43.3594C44.5313 42.427 44.1609 41.5328 43.5016 40.8735C42.8422 40.2141 41.948 39.8437 41.0156 39.8437H33.9844C31.8088 39.8437 29.7223 38.9795 28.1839 37.4411C26.6455 35.9027 25.7813 33.8162 25.7813 31.6406C25.7813 29.465 26.6455 27.3785 28.1839 25.8401C29.7223 24.3018 31.8088 23.4375 33.9844 23.4375H35.1563V21.0937C35.1563 20.4721 35.4032 19.876 35.8427 19.4365C36.2823 18.9969 36.8784 18.75 37.5 18.75C38.1216 18.75 38.7178 18.9969 39.1573 19.4365C39.5968 19.876 39.8438 20.4721 39.8438 21.0937V23.4375H44.5313C45.1529 23.4375 45.749 23.6844 46.1885 24.124C46.6281 24.5635 46.875 25.1596 46.875 25.7812C46.875 26.4028 46.6281 26.999 46.1885 27.4385C45.749 27.8781 45.1529 28.125 44.5313 28.125H33.9844C33.052 28.125 32.1578 28.4954 31.4985 29.1547C30.8392 29.814 30.4688 30.7082 30.4688 31.6406C30.4688 32.573 30.8392 33.4672 31.4985 34.1265C32.1578 34.7859 33.052 35.1562 33.9844 35.1562H41.0156C43.1912 35.1562 45.2777 36.0205 46.8161 37.5589C48.3545 39.0973 49.2188 41.1838 49.2188 43.3594Z" fill="black"/>
</svg>
