<svg width="75" height="75" viewBox="0 0 75 75" fill="none" xmlns="http://www.w3.org/2000/svg">
<circle cx="37.8868" cy="37.1134" r="27.8351" fill="#F1FAEE"/>
<path d="M37.5 7.03125C31.4739 7.03125 25.583 8.81821 20.5725 12.1662C15.5619 15.5141 11.6567 20.2727 9.35056 25.8401C7.04445 31.4075 6.44107 37.5338 7.61671 43.4442C8.79236 49.3545 11.6942 54.7835 15.9554 59.0447C20.2165 63.3058 25.6455 66.2077 31.5559 67.3833C37.4662 68.5589 43.5925 67.9556 49.1599 65.6495C54.7273 63.3433 59.4859 59.4381 62.8339 54.4275C66.1818 49.417 67.9688 43.5261 67.9688 37.5C67.9602 29.4218 64.7474 21.6769 59.0353 15.9648C53.3231 10.2526 45.5782 7.03978 37.5 7.03125ZM37.5 63.2812C32.401 63.2812 27.4164 61.7692 23.1767 58.9363C18.937 56.1034 15.6326 52.077 13.6812 47.3661C11.7299 42.6552 11.2194 37.4714 12.2141 32.4703C13.2089 27.4693 15.6643 22.8755 19.2699 19.2699C22.8755 15.6643 27.4693 13.2089 32.4703 12.2141C37.4714 11.2194 42.6552 11.7299 47.3661 13.6812C52.077 15.6326 56.1035 18.937 58.9363 23.1767C61.7692 27.4164 63.2813 32.4009 63.2813 37.5C63.2735 44.3352 60.5548 50.8883 55.7215 55.7215C50.8883 60.5548 44.3352 63.2735 37.5 63.2812ZM41.0156 37.5C41.0156 38.1953 40.8094 38.875 40.4231 39.4532C40.0368 40.0313 39.4878 40.4819 38.8454 40.748C38.203 41.0141 37.4961 41.0837 36.8141 40.9481C36.1322 40.8124 35.5058 40.4776 35.0141 39.9859C34.5224 39.4943 34.1876 38.8678 34.0519 38.1859C33.9163 37.5039 33.9859 36.797 34.252 36.1546C34.5181 35.5122 34.9687 34.9632 35.5468 34.5769C36.125 34.1906 36.8047 33.9844 37.5 33.9844C38.4324 33.9844 39.3266 34.3548 39.9859 35.0141C40.6452 35.6734 41.0156 36.5676 41.0156 37.5ZM53.9063 37.5C53.9063 38.1953 53.7001 38.875 53.3138 39.4532C52.9275 40.0313 52.3784 40.4819 51.736 40.748C51.0936 41.0141 50.3867 41.0837 49.7048 40.9481C49.0228 40.8124 48.3964 40.4776 47.9047 39.9859C47.413 39.4943 47.0782 38.8678 46.9426 38.1859C46.8069 37.5039 46.8765 36.797 47.1426 36.1546C47.4087 35.5122 47.8593 34.9632 48.4375 34.5769C49.0156 34.1906 49.6953 33.9844 50.3906 33.9844C51.323 33.9844 52.2173 34.3548 52.8766 35.0141C53.5359 35.6734 53.9063 36.5676 53.9063 37.5ZM28.125 37.5C28.125 38.1953 27.9188 38.875 27.5325 39.4532C27.1462 40.0313 26.5972 40.4819 25.9548 40.748C25.3124 41.0141 24.6055 41.0837 23.9235 40.9481C23.2416 40.8124 22.6151 40.4776 22.1235 39.9859C21.6318 39.4943 21.297 38.8678 21.1613 38.1859C21.0257 37.5039 21.0953 36.797 21.3614 36.1546C21.6275 35.5122 22.0781 34.9632 22.6562 34.5769C23.2344 34.1906 23.9141 33.9844 24.6094 33.9844C25.5418 33.9844 26.436 34.3548 27.0953 35.0141C27.7546 35.6734 28.125 36.5676 28.125 37.5Z" fill="black"/>
</svg>
