<svg width="75" height="75" viewBox="0 0 75 75" fill="none" xmlns="http://www.w3.org/2000/svg">
<ellipse cx="37.8866" cy="33.2474" rx="28.6082" ry="20.8763" fill="#E8737B"/>
<ellipse cx="64.9485" cy="37.1134" rx="5.41237" ry="8.50515" fill="#E8737B"/>
<ellipse cx="24.3561" cy="46.3917" rx="10.4381" ry="16.2371" fill="#E8737B"/>
<ellipse cx="53.737" cy="46.3917" rx="10.4381" ry="16.2371" fill="#E8737B"/>
<rect x="30.1543" y="51.8041" width="17.7835" height="5.41237" fill="#E8737B"/>
<path d="M56.25 33.9844C56.25 34.6797 56.0438 35.3594 55.6575 35.9376C55.2712 36.5157 54.7221 36.9663 54.0797 37.2324C53.4373 37.4985 52.7305 37.5681 52.0485 37.4324C51.3665 37.2968 50.7401 36.962 50.2485 36.4703C49.7568 35.9786 49.422 35.3522 49.2863 34.6702C49.1507 33.9883 49.2203 33.2814 49.4864 32.639C49.7525 31.9966 50.2031 31.4475 50.7812 31.0612C51.3593 30.6749 52.0391 30.4688 52.7344 30.4688C53.6668 30.4688 54.561 30.8391 55.2203 31.4985C55.8796 32.1578 56.25 33.052 56.25 33.9844ZM44.5312 18.75H32.8125C32.1909 18.75 31.5948 18.9969 31.1552 19.4365C30.7157 19.876 30.4688 20.4721 30.4688 21.0938C30.4688 21.7154 30.7157 22.3115 31.1552 22.751C31.5948 23.1906 32.1909 23.4375 32.8125 23.4375H44.5312C45.1529 23.4375 45.749 23.1906 46.1885 22.751C46.6281 22.3115 46.875 21.7154 46.875 21.0938C46.875 20.4721 46.6281 19.876 46.1885 19.4365C45.749 18.9969 45.1529 18.75 44.5312 18.75ZM72.6562 32.8125V42.1875C72.6562 44.0523 71.9155 45.8407 70.5968 47.1593C69.2782 48.478 67.4898 49.2188 65.625 49.2188H64.9336L60.1846 62.5137C59.8594 63.4243 59.2606 64.2121 58.4702 64.7692C57.6798 65.3262 56.7365 65.6251 55.7695 65.625H52.043C51.076 65.6251 50.1327 65.3262 49.3423 64.7692C48.5519 64.2121 47.9531 63.4243 47.6279 62.5137L47.0654 60.9375H30.2783L29.7158 62.5137C29.3907 63.4243 28.7919 64.2121 28.0015 64.7692C27.2111 65.3262 26.2677 65.6251 25.3008 65.625H21.5742C20.6073 65.6251 19.6639 65.3262 18.8735 64.7692C18.0831 64.2121 17.4843 63.4243 17.1592 62.5137L13.4766 52.2129C9.97319 48.2478 7.77952 43.2978 7.19531 38.0391C6.43893 38.4363 5.80552 39.0328 5.36352 39.7639C4.92153 40.4951 4.68777 41.3331 4.6875 42.1875C4.6875 42.8091 4.44057 43.4052 4.00103 43.8448C3.56149 44.2843 2.96535 44.5312 2.34375 44.5312C1.72215 44.5312 1.12601 44.2843 0.686468 43.8448C0.24693 43.4052 0 42.8091 0 42.1875C0.00358118 40.0974 0.705535 38.0684 1.99434 36.4228C3.28314 34.7773 5.08487 33.6097 7.11328 33.1055C7.63687 26.6465 10.5704 20.6206 15.3313 16.2244C20.0922 11.8282 26.3323 9.38323 32.8125 9.375H63.2812C63.9029 9.375 64.499 9.62193 64.9385 10.0615C65.3781 10.501 65.625 11.0971 65.625 11.7188C65.625 12.3404 65.3781 12.9365 64.9385 13.376C64.499 13.8156 63.9029 14.0625 63.2812 14.0625H57.0146C60.9042 16.7915 63.9633 20.5431 65.8535 24.9023C65.9795 25.1953 66.1025 25.4883 66.2197 25.7812C67.9796 25.9306 69.6188 26.7369 70.8114 28.0396C72.004 29.3424 72.6626 31.0463 72.6562 32.8125ZM67.9688 32.8125C67.9688 32.1909 67.7218 31.5948 67.2823 31.1552C66.8427 30.7157 66.2466 30.4688 65.625 30.4688H64.5527C64.0536 30.4693 63.5673 30.3104 63.1647 30.0153C62.7621 29.7202 62.4642 29.3043 62.3145 28.8281C60.9716 24.543 58.2945 20.7991 54.6738 18.1428C51.053 15.4865 46.6781 14.0569 42.1875 14.0625H32.8125C28.7189 14.0623 24.7137 15.2532 21.2853 17.4901C17.8568 19.7269 15.1533 22.913 13.5045 26.6599C11.8556 30.4067 11.3326 34.5524 11.9992 38.5913C12.6659 42.6303 14.4933 46.388 17.2588 49.4062C17.4703 49.6362 17.6336 49.9062 17.7393 50.2002L21.5742 60.9375H25.3008L26.4199 57.8057C26.5824 57.3506 26.8816 56.9568 27.2765 56.6783C27.6714 56.3999 28.1427 56.2503 28.626 56.25H48.7178C49.201 56.2503 49.6723 56.3999 50.0672 56.6783C50.4622 56.9568 50.7613 57.3506 50.9238 57.8057L52.043 60.9375H55.7695L61.0752 46.0869C61.2377 45.6318 61.5369 45.2381 61.9318 44.9596C62.3267 44.6811 62.798 44.5315 63.2812 44.5312H65.625C66.2466 44.5312 66.8427 44.2843 67.2823 43.8448C67.7218 43.4052 67.9688 42.8091 67.9688 42.1875V32.8125Z" fill="black"/>
</svg>
