<svg width="50" height="50" viewBox="0 0 50 50" fill="none" xmlns="http://www.w3.org/2000/svg">
<ellipse cx="14.1752" cy="18.2989" rx="11.0825" ry="10.567" fill="#E63946"/>
<ellipse cx="35.8248" cy="18.2989" rx="11.0825" ry="10.567" fill="#E63946"/>
<path d="M25 45.3608L4.68859 20.232H45.3114L25 45.3608Z" fill="#E63946"/>
<path d="M43.5545 11.1329C41.4318 9.01544 38.5569 7.82468 35.5586 7.82102C32.5603 7.81736 29.6825 9.00109 27.5545 11.1134L24.9998 13.4864L22.4432 11.1056C20.3158 8.98409 17.4327 7.79463 14.4283 7.79884C11.4239 7.80305 8.54418 9.0006 6.4227 11.128C4.30123 13.2555 3.11177 16.1385 3.11598 19.1429C3.12019 22.1474 4.31773 25.0271 6.44516 27.1485L23.8963 44.8556C24.0417 45.0032 24.215 45.1204 24.4061 45.2005C24.5973 45.2805 24.8024 45.3217 25.0096 45.3217C25.2168 45.3217 25.422 45.2805 25.6131 45.2005C25.8042 45.1204 25.9775 45.0032 26.1229 44.8556L43.5545 27.1485C45.6775 25.0243 46.8701 22.144 46.8701 19.1407C46.8701 16.1375 45.6775 13.2572 43.5545 11.1329ZM41.3377 24.9532L24.9998 41.5235L8.65219 24.9376C7.11373 23.3991 6.24943 21.3125 6.24943 19.1368C6.24943 16.9611 7.11373 14.8745 8.65219 13.336C10.1907 11.7976 12.2773 10.9333 14.453 10.9333C16.6287 10.9333 18.7153 11.7976 20.2538 13.336L20.2928 13.3751L23.9354 16.7638C24.2245 17.0328 24.6049 17.1824 24.9998 17.1824C25.3948 17.1824 25.7752 17.0328 26.0643 16.7638L29.7069 13.3751L29.7459 13.336C31.2854 11.7986 33.3726 10.9357 35.5483 10.9372C37.7241 10.9386 39.8101 11.8043 41.3475 13.3438C42.8849 14.8833 43.7478 16.9705 43.7464 19.1462C43.7449 21.322 42.8792 23.408 41.3397 24.9454L41.3377 24.9532Z" fill="black"/>
</svg>
